<svg xmlns="http://www.w3.org/2000/svg" width="471.923162733078" height="118.574743455696" viewBox="0 0 7166.59 1800.67" shape-rendering="geometricPrecision" image-rendering="optimizeQuality" fill-rule="evenodd" xmlns:v="https://vecta.io/nano"><path d="M0 883.89c139.58 177.47 364.42 367.21 641.43 527.14 277.02 159.93 553.76 259.78 777.24 291.93 83.9-209.62 135.79-499.2 135.79-819.07s-51.9-609.46-135.79-819.07c-223.48 32.15-500.22 132-777.24 291.93S139.57 706.42-.01 883.89z" fill="#ffbd0c"/><path d="M2324.71 1767.78V0h375.14v822.22c45.22-43.17 98.32-77.43 159.31-102.43 60.98-25.01 125.04-37.35 192.2-37.35 80.85 0 152.45 17.82 214.8 53.45s111.69 84.62 147.66 147.32c35.98 62.69 53.79 134.64 53.79 215.49v669.09h-375.14v-588.92c0-63.04-17.47-113.06-52.41-150.06s-82.23-55.5-141.84-55.5c-40.42 0-75.37 8.22-104.83 25.01-29.46 16.78-52.41 39.74-68.86 68.86-16.44 29.12-24.67 62.69-24.67 100.38v600.23h-375.14zm1904.48 32.89c-96.61 0-184.32-24.32-263.11-72.63s-141.49-114.77-188.08-199.39-69.89-180.89-69.89-289.15c0-104.83 22.27-199.39 66.81-283.33 44.53-83.93 105.86-150.4 183.97-199.73s168.22-74 270.31-74c66.46 0 129.85 11.31 189.8 33.92 59.96 22.61 110.66 54.47 152.45 95.58v-96.61h375.14v1052.46h-375.14v-108.95c-49.33 46.59-102.43 81.88-159.65 105.87-57.21 23.98-118.2 35.97-182.6 35.97zm113.06-317.58c46.59 0 87.7-10.62 123.33-31.52s63.38-49.33 83.25-85.65c19.87-36.31 29.81-77.77 29.81-124.36s-9.94-88.05-30.15-124.36c-20.21-36.32-48.3-65.09-83.94-85.99-35.63-20.9-76.4-31.18-122.3-31.18-45.22 0-85.65 10.28-121.62 31.18-35.98 20.9-64.41 49.67-85.31 85.99-20.9 36.31-31.52 77.77-31.52 124.36 0 45.91 10.27 87.02 30.83 123.68 20.55 36.66 48.99 65.44 84.96 86.33 35.97 20.9 76.74 31.52 122.65 31.52zm949.66 284.69V0h375.14v1767.78zm1157.29 32.89c-96.61 0-184.32-24.32-263.11-72.63S6044.6 1613.27 5998 1528.65c-46.59-84.62-69.89-180.89-69.89-289.15 0-104.83 22.27-199.39 66.8-283.33 44.54-83.93 105.86-150.4 183.98-199.73 78.11-49.33 168.21-74 270.31-74 66.46 0 129.85 11.31 189.8 33.92 59.96 22.61 110.66 54.47 152.45 95.58v-96.61h375.14v1052.46h-375.14v-108.95c-49.33 46.59-102.43 81.88-159.65 105.87-57.22 23.98-118.2 35.97-182.6 35.97zm113.05-317.58c46.59 0 87.71-10.62 123.34-31.52s63.38-49.33 83.25-85.65c19.87-36.31 29.81-77.77 29.81-124.36s-9.94-88.05-30.15-124.36c-20.21-36.32-48.3-65.09-83.94-85.99-35.63-20.9-76.4-31.18-122.31-31.18-45.22 0-85.65 10.28-121.62 31.18-35.98 20.9-64.41 49.67-85.31 85.99-20.9 36.31-31.52 77.77-31.52 124.36 0 45.91 10.28 87.02 30.84 123.68 20.55 36.66 48.99 65.44 84.96 86.33 35.97 20.9 76.74 31.52 122.64 31.52z" fill="#333" fill-rule="nonzero"/></svg>